HIERARCHY
ROOT Hips
{
	OFFSET 0.000000 0.000000 0.000000
	CHANNELS 6 Xposition Yposition Zposition Zrotation Yrotation Xrotation 
	JOINT LHipJoint
	{
		OFFSET 0.000000 0.000000 0.000000
		CHANNELS 3 Zrotation Yrotation Xrotation
		JOINT LeftUpLeg
		{
			OFFSET 1.363060 -1.794630 0.839290
			CHANNELS 3 Zrotation Yrotation Xrotation
			JOINT LeftLeg
			{
				OFFSET 2.448110 -6.726130 0.000000
				CHANNELS 3 Zrotation Yrotation Xrotation
				JOINT LeftFoot
				{
					OFFSET 2.562200 -7.039590 0.000000
					CHANNELS 3 Zrotation Yrotation Xrotation
					JOINT LeftToeBase
					{
						OFFSET 0.157640 -0.433110 2.322550
						CHANNELS 3 Zrotation Yrotation Xrotation
						End Site
						{
							OFFSET 0.000000 0.000000 0.000000
						}
					}
				}
			}
		}
	}
	JOINT RHipJoint
	{
		OFFSET 0.000000 0.000000 0.000000
		CHANNELS 3 Zrotation Yrotation Xrotation
		JOINT RightUpLeg
		{
			OFFSET -1.305520 -1.794630 0.839290
			CHANNELS 3 Zrotation Yrotation Xrotation
			JOINT RightLeg
			{
				OFFSET -2.542530 -6.985550 0.000000
				CHANNELS 3 Zrotation Yrotation Xrotation
				JOINT RightFoot
				{
					OFFSET -2.568260 -7.056230 0.000000
					CHANNELS 3 Zrotation Yrotation Xrotation
					JOINT RightToeBase
					{
						OFFSET -0.164730 -0.452590 2.363150
						CHANNELS 3 Zrotation Yrotation Xrotation
						End Site
						{
							OFFSET 0.000000 0.000000 0.000000
						}
					}
				}
			}
		}
	}
}
MOTION
Frames: 13
Frame Time: 0.008333
-1.144936 17.019582 0.638003 -7.560083 82.954216 -8.662257 -10.159063 2.051194 0.423943 -18.808118 17.312312 -23.379182 -2.389969 -0.130036 16.482883 2.976403 16.222197 -12.145821 -1.207600 0.000000 -3.391000 10.570252 -4.312186 -1.117097 -4.219772 -16.261220 5.090138 -0.234713 -2.813377 37.816207 -0.171266 14.876025 26.248545 8.184600 0.000000 -86.913600
-0.985072 17.003035 0.623498 -5.172080 83.220458 -6.281988 -10.151142 2.096918 0.423516 -19.042989 16.835430 -23.194552 -2.376939 -0.035907 17.646332 3.013962 16.303284 -12.660870 -1.379900 -0.000000 -1.821700 10.690501 -4.203052 -1.149222 -4.850971 -16.322450 3.844117 -0.391872 -2.880208 40.387426 -0.348021 14.699570 27.743118 8.493700 -0.000000 -84.999700
-0.828806 16.987738 0.608321 -2.771900 83.543965 -3.876945 -10.142077 2.135846 0.417410 -19.282480 16.371392 -22.995872 -2.366748 0.053707 18.760284 3.033104 16.289525 -13.138258 -1.536401 -0.000000 -0.564100 10.799158 -4.088716 -1.182611 -5.355452 -16.316047 2.550698 -0.535496 -2.953604 42.954533 -0.527546 13.943664 28.890057 8.386099 -0.000000 -82.636899
-0.675776 16.973826 0.591768 -0.432105 83.911877 -1.523589 -10.132402 2.168162 0.405786 -19.509014 15.936075 -22.756495 -2.358678 0.134673 19.780417 3.035250 16.189327 -13.578938 178.324300 -0.000000 -0.351400 10.896888 -3.972720 -1.216775 -5.727616 -16.245278 1.223866 -0.669797 -3.036243 45.482030 -0.706746 12.602004 29.613666 7.829800 -0.000001 -79.992901
-0.525403 16.961469 0.573204 1.770504 84.308682 0.698275 -10.122179 2.194847 0.388811 -19.708782 15.544698 -22.456300 -2.352941 0.203570 20.671331 3.023834 16.017540 -13.996496 178.198800 0.000000 -0.999600 10.984409 -3.857022 -1.249572 -5.966214 -16.108838 -0.123687 -0.799200 -3.128300 47.931213 -0.883920 10.721024 29.855150 6.851600 0.000000 -77.196500
-0.377139 16.950812 0.552148 3.755329 84.718209 2.705977 -10.111599 2.217643 0.366857 -19.872304 15.210068 -22.083033 -2.350147 0.258222 21.408396 3.003297 15.793849 -14.406131 178.082100 0.000000 -1.457000 11.061977 -3.742394 -1.277617 -6.074607 -15.902255 -1.480377 -0.926832 -3.227818 50.261903 -1.057481 8.399894 29.575543 5.536200 -0.000000 -74.332600
-0.230382 16.941993 0.528201 5.449235 85.126026 4.425306 -10.101276 2.238666 0.340446 -19.994853 14.939599 -21.629850 -2.350624 0.297706 21.974825 2.978110 15.541303 -14.813418 177.971700 -0.000000 -1.746900 11.129290 -3.628612 -1.297399 -6.061860 -15.620840 -2.833923 -1.053437 -3.331133 52.430553 -1.225530 5.778912 28.765882 4.012600 0.000000 -71.494600
-0.084611 16.935158 0.501174 6.773522 85.519732 5.777591 -10.092060 2.259675 0.310574 -20.074607 14.735540 -21.097787 -2.354717 0.321976 22.365520 2.952648 15.281164 -15.227329 177.863400 0.000000 -1.947600 11.185414 -3.515511 -1.304768 -5.939198 -15.258619 -4.173373 -1.177253 -3.433682 54.396503 -1.385114 3.022188 27.443847 2.431000 -0.000000 -68.691500
0.060644 16.930440 0.471051 7.666134 85.891869 6.701303 -10.084940 2.281970 0.278218 -20.113137 14.594302 -20.490448 -2.362236 0.331774 22.582798 2.930154 15.031266 -15.648729 177.755500 -0.000001 -2.098700 11.229301 -3.402997 -1.296243 -5.721098 -14.812231 -5.487315 -1.294005 -3.530556 56.120882 -1.532724 0.295052 25.658886 0.936799 0.000000 -65.939900
0.205716 16.927922 0.437919 8.077543 86.239656 7.147633 -10.080659 2.305968 0.244602 -20.113586 14.505871 -19.814154 -2.372509 0.328233 22.634643 2.912661 14.804126 -16.073759 177.647600 -0.000001 -2.235100 11.260134 -3.291111 -1.269234 -5.423940 -14.281308 -6.764644 -1.397692 -3.617062 57.570706 -1.664474 -2.255028 23.487088 -0.352000 0.000000 -63.235800
0.350889 16.927730 0.402068 7.967980 86.565828 7.078085 -10.079617 2.331616 0.211059 -20.079309 14.456629 -19.075416 -2.384504 0.312800 22.533659 2.900586 14.604876 -16.493586 177.541400 -0.000000 -2.377700 11.277502 -3.180114 -1.222041 -5.063636 -13.669068 -7.994621 -1.481570 -3.689025 58.720227 -1.776783 -4.514577 21.027424 -1.360299 -0.000000 -60.598100
0.496204 16.929874 0.363850 7.312830 86.877883 6.467751 -10.081552 2.358335 0.179092 -20.014505 14.428653 -18.279402 -2.396900 0.287039 22.293653 2.893035 14.432788 -16.894606 177.440200 -0.000000 -2.525500 11.281689 -3.070143 -1.155225 -4.657067 -12.986265 -9.168273 -1.539313 -3.743764 59.556145 -1.865788 -6.405786 18.379982 -2.057200 0.000000 -57.945101
0.641724 16.934333 0.323717 6.059277 87.186799 5.263864 -10.085864 2.385342 0.150264 -19.921627 14.403308 -17.430402 -2.408324 0.252580 21.929781 2.887961 14.281240 -17.261523 177.348700 -0.000000 -2.672001 11.273302 -2.960875 -1.069996 -4.216967 -12.245584 -10.277746 -1.566058 -3.779022 60.070137 -1.930094 -7.898672 15.664152 -2.458500 -0.000000 -55.373999
